<?xml version="1.0" encoding="utf-8"?>
<!-- Generator: Adobe Illustrator 19.0.0, SVG Export Plug-In . SVG Version: 6.00 Build 0)  -->
<svg version="1.1" id="Layer_1" xmlns="http://www.w3.org/2000/svg" xmlns:xlink="http://www.w3.org/1999/xlink" x="0px" y="0px"
	 viewBox="-193 271.3 224.7 251.7" enable-background="new -193 271.3 224.7 251.7" xml:space="preserve">
<ellipse id="XMLID_11_" fill="#27B99A" cx="-91.8" cy="479.9" rx="18.6" ry="17.9"/>
<a>
	
		<image overflow="visible" enable-background="new    " width="4096" height="4096" id="XMLID_20_" xlink:href="android-4096-black.png"  transform="matrix(1.070260e-002 0 0 1.028614e-002 -113.6355 458.868)">
	</image>
</a>
<g id="XMLID_26_">
	
		<image overflow="visible" opacity="0.84" enable-background="new    " width="521" height="504" id="XMLID_146_" xlink:href="89C488C6.png"  transform="matrix(0.2179 0 0 0.2157 -149.284 327.8712)">
	</image>
	<g id="XMLID_139_">
		<ellipse id="XMLID_145_" fill="#27B99A" cx="-92.6" cy="382.2" rx="44.2" ry="41.9"/>
		
			<ellipse id="XMLID_144_" fill="none" stroke="#000000" stroke-width="0.9105" stroke-miterlimit="10" cx="-92.6" cy="382.2" rx="44.2" ry="41.9"/>
	</g>
</g>
<g id="XMLID_1_">
	<rect id="XMLID_194_" x="-186.1" y="350.2" fill="none" width="55.5" height="89.1"/>
	<text transform="matrix(0.9889 0 0 1 -186.1069 409.923)" fill="#27B99A" font-family="'ArialMT'" font-size="84.1456px">&lt;</text>
	
		<text transform="matrix(0.9889 0 0 1 -186.1069 409.923)" fill="none" stroke="#000000" stroke-width="0.9105" stroke-miterlimit="10" font-family="'ArialMT'" font-size="84.1456px">&lt;</text>
	<text transform="matrix(0.9889 0 0 1 -136.4731 409.923)" fill="#27B99A" font-family="'ArialMT'" font-size="78.1351px"> </text>
	
		<text transform="matrix(0.9889 0 0 1 -136.4731 409.923)" fill="none" stroke="#000000" stroke-width="0.9105" stroke-miterlimit="10" font-family="'ArialMT'" font-size="78.1351px"> </text>
</g>
<g id="XMLID_4_">
	<rect id="XMLID_196_" x="-48.5" y="350.2" fill="none" width="53" height="84.1"/>
	<text transform="matrix(0.9889 0 0 1 -48.4961 409.923)" fill="#27B99A" font-family="'ArialMT'" font-size="84.1456px">&gt;</text>
	
		<text id="XMLID_195_" transform="matrix(0.9889 0 0 1 -48.4961 409.923)" fill="none" stroke="#000000" stroke-width="0.9105" stroke-miterlimit="10" font-family="'ArialMT'" font-size="84.1456px">&gt;</text>
</g>
<g id="XMLID_25_">
	<g>
		<defs>
			<ellipse id="SVGID_1_" cx="-92.6" cy="381.9" rx="41.1" ry="38.9"/>
		</defs>
		<clipPath id="SVGID_2_">
			<use xlink:href="#SVGID_1_"  overflow="visible"/>
		</clipPath>
		<g transform="matrix(1 0 0 1 0 0)" clip-path="url(#SVGID_2_)">
			
				<image overflow="visible" enable-background="new    " width="644" height="960" id="XMLID_17_" xlink:href="995592_10202244840115224_1907299616_n.jpg"  transform="matrix(0.1389 0 0 0.1397 -136.6372 338.1821)">
			</image>
		</g>
	</g>
</g>
<line id="XMLID_6_" fill="none" stroke="#000000" stroke-width="1.0905" stroke-miterlimit="10" x1="-139" y1="310.4" x2="-113.6" y2="345.3"/>
<line id="XMLID_7_" fill="none" stroke="#000000" stroke-width="1.1954" stroke-miterlimit="10" x1="-39.4" y1="309.7" x2="-65.6" y2="349.3"/>
<line id="XMLID_8_" fill="none" stroke="#000000" stroke-width="0.951" stroke-miterlimit="10" x1="-92.6" y1="424" x2="-91.8" y2="461.9"/>
<ellipse id="XMLID_9_" fill="#27B99A" cx="-147.3" cy="295.1" rx="18.6" ry="17.9"/>
<ellipse id="XMLID_10_" fill="#27B99A" cx="-28.3" cy="295.1" rx="18.6" ry="17.9"/>
<rect id="XMLID_12_" x="-159.9" y="287.7" fill="none" width="28.7" height="9.3"/>
<text id="XMLID_13_" transform="matrix(0.9889 0 0 1 -159.9272 296.7219)" font-family="'Lato-BlackItalic'" font-size="12.0208px">&lt; / &gt; </text>
<a>
	
		<image overflow="visible" enable-background="new    " width="200" height="200" id="XMLID_14_" xlink:href="c.png"  transform="matrix(0.1346 0 0 0.1376 -161.4868 281.368)">
	</image>
</a>
<a>
	
		<image overflow="visible" enable-background="new    " width="512" height="512" id="XMLID_15_" xlink:href="games-icon-png-4.png"  transform="matrix(5.569950e-002 0 0 4.468894e-002 -42.4849 283.6845)">
	</image>
</a>
</svg>
